<svg width="16" height="19" viewBox="0 0 16 19" fill="none" xmlns="http://www.w3.org/2000/svg">
<path d="M7.6001 6.46045C7.06331 6.46045 6.5791 6.32487 6.14746 6.05371C5.72135 5.77702 5.38102 5.40902 5.12646 4.94971C4.87744 4.48486 4.75016 3.96468 4.74463 3.38916C4.74463 2.83024 4.87191 2.32113 5.12646 1.86182C5.38102 1.40251 5.72412 1.03727 6.15576 0.766113C6.5874 0.494954 7.06885 0.359375 7.6001 0.359375C8.13135 0.359375 8.61003 0.494954 9.03613 0.766113C9.46777 1.03727 9.81087 1.40251 10.0654 1.86182C10.3255 2.31559 10.4556 2.81917 10.4556 3.37256C10.4556 3.94808 10.3283 4.47103 10.0737 4.94141C9.82471 5.40625 9.48438 5.77702 9.05273 6.05371C8.62109 6.32487 8.13688 6.46045 7.6001 6.46045ZM7.6001 5.06592C7.87126 5.06592 8.11198 4.99398 8.32227 4.8501C8.53255 4.70622 8.69857 4.50977 8.82031 4.26074C8.94759 4.00618 9.01123 3.71012 9.01123 3.37256C9.01123 3.05713 8.94759 2.77767 8.82031 2.53418C8.69857 2.29069 8.52979 2.09977 8.31396 1.96143C8.10368 1.82308 7.86572 1.75391 7.6001 1.75391C7.33447 1.75391 7.09375 1.82308 6.87793 1.96143C6.66764 2.09977 6.50163 2.29346 6.37988 2.54248C6.25814 2.78597 6.19727 3.06543 6.19727 3.38086C6.19727 3.71842 6.25814 4.01449 6.37988 4.26904C6.50163 4.51807 6.66764 4.71452 6.87793 4.8584C7.09375 4.99674 7.33447 5.06592 7.6001 5.06592ZM3.18408 12.4453C2.79671 12.4453 2.48958 12.3429 2.2627 12.1382C2.04134 11.9279 1.93066 11.6374 1.93066 11.2666C1.93066 10.8128 2.06348 10.348 2.3291 9.87207C2.60026 9.39616 2.98486 8.95622 3.48291 8.55225C3.98096 8.14274 4.57861 7.81348 5.27588 7.56445C5.97314 7.31543 6.74788 7.19092 7.6001 7.19092C8.45231 7.19092 9.22428 7.31543 9.91602 7.56445C10.6133 7.81348 11.2109 8.14274 11.709 8.55225C12.207 8.95622 12.5916 9.39616 12.8628 9.87207C13.134 10.348 13.2695 10.8128 13.2695 11.2666C13.2695 11.6374 13.1561 11.9279 12.9292 12.1382C12.7078 12.3429 12.4035 12.4453 12.0161 12.4453H3.18408ZM3.64893 11.0425H11.543C11.6094 11.0425 11.6564 11.0314 11.6841 11.0093C11.7118 10.9871 11.7228 10.9539 11.7173 10.9097C11.6896 10.6994 11.5789 10.4614 11.3853 10.1958C11.1916 9.93018 10.9204 9.67562 10.5718 9.43213C10.2231 9.18311 9.7998 8.98112 9.30176 8.82617C8.80371 8.66569 8.23649 8.58545 7.6001 8.58545C6.9637 8.58545 6.39372 8.66569 5.89014 8.82617C5.39209 8.98112 4.96875 9.18311 4.62012 9.43213C4.27702 9.67562 4.00863 9.93018 3.81494 10.1958C3.62126 10.4614 3.50781 10.6994 3.47461 10.9097C3.47461 10.9539 3.48844 10.9871 3.51611 11.0093C3.54378 11.0314 3.58805 11.0425 3.64893 11.0425ZM0.942871 18.6294C0.710449 18.6294 0.508464 18.5436 0.336914 18.3721C0.170898 18.2061 0.0878906 18.0041 0.0878906 17.7661C0.0878906 17.5337 0.170898 17.3317 0.336914 17.1602C0.508464 16.9886 0.710449 16.9028 0.942871 16.9028H1.46582V15.2427C1.46582 14.7446 1.59863 14.3573 1.86426 14.0806C2.13542 13.7983 2.53109 13.6572 3.05127 13.6572H12.1489C12.6691 13.6572 13.0648 13.7983 13.3359 14.0806C13.6071 14.3573 13.7427 14.7446 13.7427 15.2427V16.9028H14.2573C14.4897 16.9028 14.689 16.9886 14.855 17.1602C15.0265 17.3317 15.1123 17.5337 15.1123 17.7661C15.1123 18.0041 15.0265 18.2061 14.855 18.3721C14.689 18.5436 14.4897 18.6294 14.2573 18.6294H0.942871ZM5.99805 16.7783H9.21045C9.38753 16.7783 9.53418 16.7174 9.65039 16.5957C9.77214 16.474 9.83301 16.3245 9.83301 16.1475C9.83301 15.9704 9.77214 15.821 9.65039 15.6992C9.53418 15.583 9.38753 15.5249 9.21045 15.5249H5.99805C5.82096 15.5249 5.67155 15.583 5.5498 15.6992C5.43359 15.821 5.37549 15.9704 5.37549 16.1475C5.37549 16.3245 5.43359 16.474 5.5498 16.5957C5.67155 16.7174 5.82096 16.7783 5.99805 16.7783Z" fill="#2AD884"/>
</svg>
