<svg width="32" height="33" viewBox="0 0 32 33" fill="none" xmlns="http://www.w3.org/2000/svg">
<path d="M8.95264 24.3428C8.03402 24.3428 7.33398 24.1048 6.85254 23.6289C6.37663 23.153 6.13867 22.464 6.13867 21.562V11.4766C6.13867 10.5635 6.37663 9.87174 6.85254 9.40137C7.33398 8.92546 8.03402 8.6875 8.95264 8.6875H23.0557C23.9743 8.6875 24.6715 8.92546 25.1475 9.40137C25.6234 9.87728 25.8613 10.569 25.8613 11.4766V21.562C25.8613 22.464 25.6234 23.153 25.1475 23.6289C24.6715 24.1048 23.9743 24.3428 23.0557 24.3428H8.95264ZM9.10205 22.4917H22.8979C23.2576 22.4917 23.5343 22.4004 23.728 22.2178C23.9217 22.0296 24.0186 21.7446 24.0186 21.3628V11.6675C24.0186 11.2856 23.9217 11.0007 23.728 10.8125C23.5343 10.6243 23.2576 10.5303 22.8979 10.5303H9.10205C8.73682 10.5303 8.45736 10.6243 8.26367 10.8125C8.07552 11.0007 7.98145 11.2856 7.98145 11.6675V21.3628C7.98145 21.7446 8.07552 22.0296 8.26367 22.2178C8.45736 22.4004 8.73682 22.4917 9.10205 22.4917ZM14.6138 19.7773C14.4478 19.8714 14.2817 19.9102 14.1157 19.8936C13.9552 19.877 13.8197 19.8133 13.709 19.7026C13.6038 19.592 13.5513 19.4453 13.5513 19.2627V13.7593C13.5513 13.5767 13.6066 13.4328 13.7173 13.3276C13.828 13.217 13.9663 13.1533 14.1323 13.1367C14.2983 13.1201 14.4588 13.1589 14.6138 13.2529L19.1377 15.9341C19.2871 16.0226 19.3867 16.1416 19.4365 16.291C19.4919 16.4404 19.4946 16.5898 19.4448 16.7393C19.395 16.8887 19.2926 17.0104 19.1377 17.1045L14.6138 19.7773Z" fill="#2AD884"/>
</svg>
