<svg width="33" height="33" viewBox="0 0 33 33" fill="none" xmlns="http://www.w3.org/2000/svg">
<path d="M16.1751 23.9692C15.2454 23.9692 14.407 23.8337 13.66 23.5625C12.9184 23.2969 12.3014 22.9316 11.8089 22.4668C11.3164 21.9964 10.9816 21.4569 10.8045 20.8481C10.7381 20.6489 10.7049 20.4663 10.7049 20.3003C10.7049 19.9793 10.799 19.7192 10.9871 19.52C11.1808 19.3208 11.4547 19.2212 11.8089 19.2212C12.0801 19.2212 12.3069 19.2931 12.4896 19.437C12.6777 19.5809 12.8299 19.7801 12.9461 20.0347C13.0734 20.4608 13.2809 20.8205 13.5687 21.1138C13.8564 21.4071 14.2189 21.6312 14.6561 21.7861C15.0988 21.9411 15.6162 22.0186 16.2083 22.0186C16.8668 22.0186 17.4341 21.9355 17.91 21.7695C18.3914 21.598 18.7594 21.3517 19.014 21.0308C19.2685 20.7098 19.3958 20.3197 19.3958 19.8604C19.3958 19.2682 19.1855 18.8089 18.765 18.4824C18.3444 18.1559 17.6416 17.8765 16.6566 17.644L15.0794 17.2871C13.6738 16.9606 12.6196 16.4736 11.9168 15.8262C11.2195 15.1732 10.8709 14.3182 10.8709 13.2612C10.8709 12.4201 11.0978 11.6868 11.5516 11.0615C12.0054 10.4307 12.6307 9.94092 13.4276 9.59229C14.2244 9.23812 15.1375 9.06104 16.1668 9.06104C17.0633 9.06104 17.8685 9.19661 18.5823 9.46777C19.3017 9.7334 19.8966 10.1014 20.367 10.5718C20.8374 11.0422 21.1611 11.5789 21.3382 12.1821C21.3659 12.2707 21.3852 12.362 21.3963 12.4561C21.4129 12.5446 21.4212 12.6331 21.4212 12.7217C21.4212 13.0205 21.3271 13.2612 21.139 13.4438C20.9508 13.6209 20.688 13.7095 20.3504 13.7095C19.8247 13.7095 19.4401 13.4466 19.1966 12.9209C19.0416 12.5059 18.8258 12.1572 18.5491 11.875C18.2724 11.5928 17.9349 11.3797 17.5364 11.2358C17.1435 11.0864 16.6925 11.0117 16.1834 11.0117C15.5526 11.0117 15.0158 11.103 14.5731 11.2856C14.1304 11.4683 13.7928 11.7173 13.5604 12.0327C13.3335 12.3426 13.22 12.6885 13.22 13.0703C13.22 13.6126 13.4331 14.0553 13.8592 14.3984C14.2853 14.736 14.9383 15.0044 15.8182 15.2036L17.3953 15.5688C18.8839 15.9119 19.9796 16.4072 20.6824 17.0547C21.3852 17.6966 21.7366 18.5571 21.7366 19.6362C21.7366 20.5493 21.4904 21.3296 20.9979 21.9771C20.5054 22.6245 19.8385 23.117 18.9974 23.4546C18.1618 23.7977 17.221 23.9692 16.1751 23.9692ZM16.1917 25.8784C16.0312 25.8784 15.8957 25.8231 15.785 25.7124C15.6798 25.6017 15.6273 25.4634 15.6273 25.2974V7.74951C15.6273 7.5835 15.6798 7.44515 15.785 7.33447C15.8957 7.2238 16.0312 7.16846 16.1917 7.16846C16.3577 7.16846 16.4933 7.2238 16.5984 7.33447C16.7091 7.44515 16.7645 7.5835 16.7645 7.74951V25.2974C16.7645 25.4634 16.7091 25.6017 16.5984 25.7124C16.4933 25.8231 16.3577 25.8784 16.1917 25.8784Z" fill="#2AD884"/>
</svg>
