<svg width="19" height="17" viewBox="0 0 19 17" fill="none" xmlns="http://www.w3.org/2000/svg">
<path d="M0.203125 15.7783V1.44287C0.203125 1.18278 0.2889 0.961426 0.460449 0.778809C0.637533 0.596191 0.861654 0.504883 1.13281 0.504883C1.3929 0.504883 1.60872 0.596191 1.78027 0.778809C1.95736 0.961426 2.0459 1.18278 2.0459 1.44287V14.4502C2.0459 14.5996 2.12337 14.6743 2.27832 14.6743H17.668C17.9225 14.6743 18.1411 14.7629 18.3237 14.9399C18.5063 15.117 18.5977 15.3356 18.5977 15.5957C18.5977 15.8669 18.5063 16.0882 18.3237 16.2598C18.1411 16.4313 17.9225 16.5171 17.668 16.5171H0.950195C0.728841 16.5171 0.548991 16.4479 0.410645 16.3096C0.272298 16.1768 0.203125 15.9997 0.203125 15.7783ZM1.10791 10.4658V8.92188L6.66943 5.70117L10.6704 9.07959L16.9541 5.31104L17.6514 6.46484L10.5791 10.7065L6.55322 7.31982L1.10791 10.4658ZM6.52002 8.39062C6.21566 8.39062 5.9362 8.31592 5.68164 8.1665C5.42708 8.01156 5.2251 7.80957 5.07568 7.56055C4.92627 7.30599 4.85156 7.02653 4.85156 6.72217C4.85156 6.41781 4.92627 6.13835 5.07568 5.88379C5.2251 5.62923 5.42708 5.43001 5.68164 5.28613C5.9362 5.13672 6.21566 5.06201 6.52002 5.06201C6.82438 5.06201 7.10107 5.13672 7.3501 5.28613C7.60465 5.43001 7.80664 5.62923 7.95605 5.88379C8.111 6.13835 8.18848 6.41781 8.18848 6.72217C8.18848 7.02653 8.111 7.30599 7.95605 7.56055C7.80664 7.80957 7.60465 8.01156 7.3501 8.1665C7.10107 8.31592 6.82438 8.39062 6.52002 8.39062ZM10.604 11.5532C10.2996 11.5532 10.0202 11.4785 9.76562 11.3291C9.5166 11.1797 9.31462 10.9805 9.15967 10.7314C9.01025 10.4769 8.93555 10.1947 8.93555 9.88477C8.93555 9.5804 9.01025 9.30371 9.15967 9.05469C9.31462 8.80013 9.5166 8.59814 9.76562 8.44873C10.0202 8.29932 10.2996 8.22461 10.604 8.22461C10.9139 8.22461 11.1934 8.29932 11.4424 8.44873C11.6969 8.59814 11.8962 8.80013 12.04 9.05469C12.1895 9.30371 12.2642 9.5804 12.2642 9.88477C12.2642 10.1947 12.1895 10.4769 12.04 10.7314C11.8962 10.9805 11.6969 11.1797 11.4424 11.3291C11.1934 11.4785 10.9139 11.5532 10.604 11.5532ZM16.8462 7.74316C16.5418 7.74316 16.2624 7.66846 16.0078 7.51904C15.7588 7.36963 15.5596 7.17041 15.4102 6.92139C15.2607 6.66683 15.186 6.38737 15.186 6.08301C15.186 5.77311 15.2607 5.49365 15.4102 5.24463C15.5596 4.99007 15.7588 4.78809 16.0078 4.63867C16.2624 4.48926 16.5418 4.41455 16.8462 4.41455C17.1506 4.41455 17.43 4.48926 17.6846 4.63867C17.9391 4.78809 18.1411 4.99007 18.2905 5.24463C18.4399 5.49365 18.5146 5.77311 18.5146 6.08301C18.5146 6.38737 18.4399 6.66683 18.2905 6.92139C18.1411 7.17041 17.9391 7.36963 17.6846 7.51904C17.43 7.66846 17.1506 7.74316 16.8462 7.74316Z" fill="#2AD884"/>
</svg>
