<svg width="32" height="38" viewBox="0 0 32 38" fill="none" xmlns="http://www.w3.org/2000/svg">
<path d="M16 12.7217C14.9264 12.7217 13.9525 12.445 13.0781 11.8916C12.2148 11.3382 11.5286 10.5967 11.0195 9.66699C10.5104 8.72624 10.2503 7.68034 10.2393 6.5293C10.2393 5.40039 10.4938 4.37663 11.0029 3.45801C11.5231 2.52832 12.2204 1.79232 13.0947 1.25C13.9691 0.696615 14.9375 0.419922 16 0.419922C17.0736 0.419922 18.042 0.696615 18.9053 1.25C19.7796 1.79232 20.4714 2.52832 20.9805 3.45801C21.5007 4.37663 21.7607 5.38932 21.7607 6.49609C21.7607 7.6582 21.5062 8.70964 20.9971 9.65039C20.488 10.5911 19.7962 11.3382 18.9219 11.8916C18.0586 12.445 17.0846 12.7217 16 12.7217ZM16 9.66699C16.5091 9.66699 16.9574 9.53971 17.3447 9.28516C17.7432 9.01953 18.0531 8.64876 18.2744 8.17285C18.5068 7.69694 18.623 7.13802 18.623 6.49609C18.623 5.90951 18.5068 5.38932 18.2744 4.93555C18.042 4.4707 17.7266 4.111 17.3281 3.85645C16.9408 3.60189 16.498 3.47461 16 3.47461C15.513 3.47461 15.0703 3.60189 14.6719 3.85645C14.2734 4.111 13.958 4.4707 13.7256 4.93555C13.4932 5.38932 13.377 5.91504 13.377 6.5127C13.377 7.15462 13.4932 7.71354 13.7256 8.18945C13.958 8.6543 14.2679 9.01953 14.6553 9.28516C15.0537 9.53971 15.502 9.66699 16 9.66699ZM7.36719 24.6416C6.53711 24.6416 5.87858 24.4258 5.3916 23.9941C4.90462 23.5514 4.66113 22.9316 4.66113 22.1348C4.66113 21.1829 4.93783 20.2367 5.49121 19.2959C6.0446 18.3441 6.81934 17.4753 7.81543 16.6895C8.82259 15.9036 10.0179 15.2783 11.4014 14.8135C12.7959 14.3376 14.3288 14.0996 16 14.0996C17.6823 14.0996 19.2152 14.3376 20.5986 14.8135C21.9821 15.2783 23.1774 15.9036 24.1846 16.6895C25.1917 17.4753 25.9665 18.3441 26.5088 19.2959C27.0622 20.2367 27.3389 21.1829 27.3389 22.1348C27.3389 22.9316 27.0954 23.5514 26.6084 23.9941C26.1214 24.4258 25.4684 24.6416 24.6494 24.6416H7.36719ZM8.37988 21.5869H23.6201C23.7197 21.5869 23.7917 21.5648 23.8359 21.5205C23.8913 21.4762 23.9134 21.4209 23.9023 21.3545C23.8581 20.9671 23.6533 20.5355 23.2881 20.0596C22.9229 19.5837 22.4027 19.1243 21.7275 18.6816C21.0524 18.2279 20.2334 17.8571 19.2705 17.5693C18.3187 17.2816 17.2285 17.1377 16 17.1377C14.7715 17.1377 13.6758 17.2816 12.7129 17.5693C11.7611 17.8571 10.9476 18.2279 10.2725 18.6816C9.6084 19.1243 9.08822 19.5837 8.71191 20.0596C8.34668 20.5355 8.14193 20.9671 8.09766 21.3545C8.09766 21.4209 8.11979 21.4762 8.16406 21.5205C8.20833 21.5648 8.28027 21.5869 8.37988 21.5869ZM2.66895 37.5078C2.1377 37.5078 1.67839 37.3197 1.29102 36.9434C0.914714 36.5671 0.726562 36.1077 0.726562 35.5654C0.726562 35.0342 0.914714 34.5749 1.29102 34.1875C1.67839 33.8112 2.1377 33.623 2.66895 33.623H3.71484V30.6016C3.71484 29.5391 4.01367 28.6979 4.61133 28.0781C5.22005 27.4583 6.07227 27.1484 7.16797 27.1484H24.8486C25.9333 27.1484 26.7799 27.4583 27.3887 28.0781C27.9974 28.6979 28.3018 29.5391 28.3018 30.6016V33.623H29.3311C29.8623 33.623 30.3161 33.8112 30.6924 34.1875C31.0798 34.5749 31.2734 35.0342 31.2734 35.5654C31.2734 36.1077 31.0798 36.5671 30.6924 36.9434C30.3161 37.3197 29.8623 37.5078 29.3311 37.5078H2.66895ZM12.8291 33.7559H19.1875C19.5859 33.7559 19.918 33.6175 20.1836 33.3408C20.4492 33.0752 20.582 32.7376 20.582 32.3281C20.582 31.9408 20.4492 31.6087 20.1836 31.332C19.918 31.0664 19.5859 30.9336 19.1875 30.9336H12.8291C12.4417 30.9336 12.1097 31.0664 11.833 31.332C11.5674 31.6087 11.4346 31.9408 11.4346 32.3281C11.4346 32.7376 11.5674 33.0752 11.833 33.3408C12.1097 33.6175 12.4417 33.7559 12.8291 33.7559Z" fill="white"/>
</svg>
